<?xml version="1.0" standalone="no"?>
<!DOCTYPE svg PUBLIC "-//W3C//DTD SVG 20010904//EN"
 "http://www.w3.org/TR/2001/REC-SVG-20010904/DTD/svg10.dtd">
<svg version="1.0" xmlns="http://www.w3.org/2000/svg"
 width="512.000000pt" height="512.000000pt" viewBox="0 0 512.000000 512.000000"
 preserveAspectRatio="xMidYMid meet">
<metadata>
Created by potrace 1.12, written by Peter Selinger 2001-2015
</metadata>
<g transform="translate(0.000000,512.000000) scale(0.100000,-0.100000)"
fill="#000000" stroke="none">
<path d="M2567 5095 c-6 -17 -20 -84 -32 -150 -8 -44 -26 -173 -31 -215 -2
-25 -6 -55 -9 -67 -2 -12 -7 -73 -10 -135 -4 -62 -12 -116 -18 -119 -5 -4 -30
-10 -56 -13 -94 -12 -230 -72 -339 -149 -298 -208 -511 -623 -534 -1039 l-2
-38 -323 0 -323 0 0 -125 0 -125 48 0 c44 -1 2975 0 3205 0 l107 0 0 125 0
125 -323 0 -322 0 -1 28 c-1 38 -15 166 -19 172 -2 3 -6 23 -9 45 -7 45 -39
157 -63 225 -116 325 -365 609 -623 708 -46 17 -128 43 -154 48 -77 14 -73 11
-75 72 -1 31 -3 71 -5 87 -2 17 -7 64 -11 105 -3 41 -8 82 -10 90 -2 8 -7 38
-10 65 -3 28 -13 91 -22 140 -29 165 -28 162 -36 140z"/>
<path d="M1011 2830 c-8 -19 -7 -1018 2 -1026 6 -6 91 -8 220 -5 l32 1 -1 518
c-1 284 -2 519 -3 522 0 3 -55 5 -122 5 -98 0 -122 -3 -128 -15z"/>
<path d="M1709 2845 c-1 0 -2 -235 -3 -522 -2 -521 -2 -523 18 -524 61 -2 228
1 234 5 5 3 8 971 3 1031 -1 7 -227 16 -252 10z"/>
<path d="M2445 2841 c-3 -2 -5 -238 -5 -523 0 -407 3 -518 13 -518 6 -1 64 -1
127 -2 l115 0 0 523 0 524 -123 0 c-68 1 -125 -1 -127 -4z"/>
<path d="M3144 2838 c-7 -11 -6 -1029 0 -1035 4 -5 96 -6 217 -4 l36 1 0 523
0 522 -124 0 c-69 1 -127 -3 -129 -7z"/>
<path d="M3839 2845 c-6 -1 -2 -1038 4 -1042 7 -4 134 -7 222 -4 l30 1 0 514
c0 283 -4 518 -8 522 -6 6 -226 14 -248 9z"/>
<path d="M283 1585 l0 -125 2277 0 2278 0 -1 125 -1 125 -2276 0 -2277 0 0
-125z"/>
<path d="M349 1366 c-1 -6 -2 -242 -3 -524 l-1 -513 130 3 130 3 0 520 0 520
-127 1 c-86 0 -128 -3 -129 -10z"/>
<path d="M1049 1377 c-1 -1 -2 -237 -3 -524 l-1 -523 127 0 c115 0 128 2 129
18 1 22 1 1004 0 1018 -1 8 -42 11 -126 12 -69 0 -126 -1 -126 -1z"/>
<path d="M1780 854 l0 -524 130 0 130 0 0 524 0 523 -130 1 -130 0 0 -524z"/>
<path d="M2480 1366 c-1 -16 -1 -965 -1 -1003 l1 -33 129 0 128 0 -1 523 -1
522 -127 1 c-88 1 -128 -2 -128 -10z"/>
<path d="M3176 1371 c-2 -6 0 -1017 3 -1034 0 -4 58 -6 128 -5 l128 3 0 510
c1 281 -1 515 -3 522 -4 12 -250 16 -256 4z"/>
<path d="M3810 854 l0 -524 130 0 130 0 -2 523 -3 522 -127 1 -128 2 0 -524z"/>
<path d="M4509 1377 c-4 -8 -3 -1031 2 -1038 3 -6 60 -8 130 -7 l124 3 0 520
0 520 -127 2 c-71 1 -128 1 -129 0z"/>
<path d="M283 125 l0 -125 2277 0 2277 0 0 125 0 125 -2277 0 -2277 0 0 -125z"/>
</g>
</svg>
